<svg width="84" height="30" viewBox="0 0 84 30" fill="none" xmlns="http://www.w3.org/2000/svg">
<path d="M20.9405 11.9627H1.32978L0 15.955H19.6107L20.9405 11.9627ZM23.0542 5.98851H3.54141L2.12764 9.98085H21.7384L23.0542 5.98851ZM25.2658 0H5.65506L4.24129 3.99234H23.852L25.2658 0Z" fill="#009DE0"/>
<path d="M34.5322 29.8999L27.2114 5.98897H32.3346L35.1621 16.415C35.96 19.5026 36.3939 21.1254 36.9258 23.7535C37.4577 21.3121 37.7237 20.1345 38.6895 16.6017L41.517 6.00333H46.4582L39.1234 29.8999H34.5322ZM54.2269 29.8999V9.96695H47.522V5.97461H66.2509L64.9211 9.96695H58.9161V29.8999H54.2269ZM72.3399 15.5964H74.9855C75.7833 15.5964 76.2173 15.5964 76.5812 15.5103C77.645 15.1513 78.3449 14.146 78.3449 12.7961C78.3449 11.1589 77.645 10.4409 76.5812 10.168C76.1333 10.0818 75.6993 9.98131 74.8175 9.98131H72.3399V15.5964ZM72.4239 19.6606V25.9076H75.6854C76.6512 25.9076 77.533 25.8214 78.1629 25.1895C78.7788 24.5577 79.1288 23.7391 79.1288 22.7482C79.1288 21.9296 78.9468 21.2116 78.5129 20.6659C77.813 19.7611 77.0151 19.5744 75.5034 19.5744H72.4099V19.6606H72.4239ZM79.8427 17.2192C80.7245 17.6788 81.6064 18.2101 82.0543 18.5835C83.4681 19.7611 84 21.2977 84 23.2939C84 26.5538 82.3202 28.909 79.4927 29.6414C78.6109 29.9143 77.729 30.0005 76.1333 30.0005H67.6507V5.98897H75.1534C76.6512 5.98897 77.715 6.07514 78.6809 6.34799C81.4244 7.06604 83.1881 8.97605 83.1881 12.0493C83.1881 13.6864 82.6562 15.0364 81.6903 15.9411C81.2564 16.3145 80.7245 16.774 79.8427 17.2192Z" fill="#243571"/>
</svg>
